<svg viewBox="0 0 35 35" fill="none" xmlns="http://www.w3.org/2000/svg">
  <path d="M18.3259 1.04772C17.9011 0.533944 17.0989 0.533943 16.6741 1.04772C10.0613 9.045 0 12.6078 0 21C0 24.5 4.375 28 8.75 28C10.9375 28 13.125 28 15.3125 26.25C15.3125 26.25 15.858 28.9773 12.4951 33.2281C11.9474 33.9204 12.4123 35 13.295 35H21.9275C22.7753 35 23.2472 33.9996 22.7547 33.3095C19.6875 29.0121 19.6875 26.25 19.6875 26.25C21.875 28 24.0625 28 26.25 28C30.625 28 35 24.5 35 21C35 12.6078 24.9387 9.045 18.3259 1.04772Z" fill="#1E1E1E"/>
</svg>
