<svg viewBox="0 0 35 35" fill="none" xmlns="http://www.w3.org/2000/svg">
  <path d="M16.6741 33.9523C17.0989 34.4661 17.9011 34.4661 18.3259 33.9523C24.9387 25.955 35 22.3922 35 14C35 10.5 30.625 7 26.25 7C24.0625 7 21.875 7 19.6875 8.75C19.6875 8.75 19.142 6.02272 22.5049 1.77191C23.0526 1.0796 22.5877 -1.08511e-06 21.705 -1.16229e-06L13.0725 -1.91696e-06C12.2247 -1.99108e-06 11.7528 1.00042 12.2453 1.69051C15.3125 5.98788 15.3125 8.75 15.3125 8.75C13.125 7 10.9375 7 8.75 7C4.375 7 2.14186e-06 10.5 1.83588e-06 14C1.10221e-06 22.3922 10.0613 25.955 16.6741 33.9523Z" fill="#1E1E1E"/>
</svg>
